<mxfile host="app.diagrams.net" modified="2023-12-06T01:55:37.772Z" agent="Mozilla/5.0 (Macintosh; Intel Mac OS X 10_15_7) AppleWebKit/605.1.15 (KHTML, like Gecko) Version/17.2 Safari/605.1.15" etag="SUFb2GsKr3bibHQjQc2h" version="22.1.5" type="google" pages="9">
  <diagram name="init connection" id="wA6jIF9hVN0wyC8wV--m">
    <mxGraphModel grid="1" page="1" gridSize="10" guides="1" tooltips="1" connect="1" arrows="1" fold="1" pageScale="1" pageWidth="827" pageHeight="1169" math="0" shadow="0">
      <root>
        <mxCell id="0" />
        <mxCell id="1" parent="0" />
        <mxCell id="Ihsage5sZQfSYGgomGOP-16" value="Tienda Local procesa archivo Local" style="text;html=1;strokeColor=#36393d;fillColor=#eeeeee;align=center;verticalAlign=middle;whiteSpace=wrap;rounded=1;shadow=1;fontStyle=0;fontFamily=Courier New;" vertex="1" parent="1">
          <mxGeometry x="190" y="500" width="390" height="30" as="geometry" />
        </mxCell>
        <mxCell id="Ihsage5sZQfSYGgomGOP-17" value="UpdateProduct { product, amount }" style="endArrow=classic;html=1;rounded=0;startArrow=none;startFill=0;endFill=1;fontStyle=0;fontFamily=Courier New;" edge="1" parent="1">
          <mxGeometry width="50" height="50" relative="1" as="geometry">
            <mxPoint x="200" y="550" as="sourcePoint" />
            <mxPoint x="570" y="550" as="targetPoint" />
          </mxGeometry>
        </mxCell>
        <mxCell id="Ihsage5sZQfSYGgomGOP-5" style="edgeStyle=orthogonalEdgeStyle;rounded=0;orthogonalLoop=1;jettySize=auto;html=1;endArrow=none;endFill=0;fontStyle=0;fontFamily=Courier New;" edge="1" parent="1">
          <mxGeometry relative="1" as="geometry">
            <mxPoint x="185" y="560" as="targetPoint" />
            <mxPoint x="185" y="170" as="sourcePoint" />
          </mxGeometry>
        </mxCell>
        <mxCell id="Ihsage5sZQfSYGgomGOP-1" value="Common Store" style="html=1;verticalLabelPosition=bottom;align=center;labelBackgroundColor=#ffffff;verticalAlign=top;strokeWidth=2;shadow=1;dashed=0;shape=mxgraph.ios7.icons.home;fillColor=#FFD966;strokeColor=#36393d;fontStyle=0;fontFamily=Courier New;" vertex="1" parent="1">
          <mxGeometry x="160" y="120" width="50" height="50" as="geometry" />
        </mxCell>
        <mxCell id="Ihsage5sZQfSYGgomGOP-6" style="edgeStyle=orthogonalEdgeStyle;rounded=0;orthogonalLoop=1;jettySize=auto;html=1;endArrow=none;endFill=0;fontStyle=0;fontFamily=Courier New;" edge="1" parent="1" source="Ihsage5sZQfSYGgomGOP-3">
          <mxGeometry relative="1" as="geometry">
            <mxPoint x="585" y="560" as="targetPoint" />
          </mxGeometry>
        </mxCell>
        <mxCell id="Ihsage5sZQfSYGgomGOP-3" value="Coordinator Store" style="html=1;verticalLabelPosition=bottom;align=center;labelBackgroundColor=#ffffff;verticalAlign=top;strokeWidth=2;strokeColor=#36393d;shadow=1;dashed=0;shape=mxgraph.ios7.icons.home;fillColor=#CC99FF;fontStyle=0;fontFamily=Courier New;" vertex="1" parent="1">
          <mxGeometry x="560" y="120" width="50" height="50" as="geometry" />
        </mxCell>
        <mxCell id="Ihsage5sZQfSYGgomGOP-10" value="Syn { listener }" style="endArrow=classic;html=1;rounded=0;fontStyle=0;fontFamily=Courier New;" edge="1" parent="1">
          <mxGeometry width="50" height="50" relative="1" as="geometry">
            <mxPoint x="200" y="230" as="sourcePoint" />
            <mxPoint x="570" y="230" as="targetPoint" />
          </mxGeometry>
        </mxCell>
        <mxCell id="Ihsage5sZQfSYGgomGOP-12" value="SyncStock { stock }" style="endArrow=classic;html=1;rounded=0;fontStyle=0;fontFamily=Courier New;" edge="1" parent="1">
          <mxGeometry width="50" height="50" relative="1" as="geometry">
            <mxPoint x="200" y="270" as="sourcePoint" />
            <mxPoint x="570" y="270" as="targetPoint" />
          </mxGeometry>
        </mxCell>
        <mxCell id="Ihsage5sZQfSYGgomGOP-13" value="Coordinador procesa archivo ECommerce" style="text;html=1;strokeColor=#36393d;fillColor=#eeeeee;align=center;verticalAlign=middle;whiteSpace=wrap;rounded=1;glass=0;shadow=1;fontStyle=0;fontFamily=Courier New;" vertex="1" parent="1">
          <mxGeometry x="190" y="290" width="390" height="30" as="geometry" />
        </mxCell>
        <mxCell id="Ihsage5sZQfSYGgomGOP-14" value="ECommeceSell { status: pending, sell }" style="endArrow=none;html=1;rounded=0;startArrow=classic;startFill=1;endFill=0;fontStyle=0;fontFamily=Courier New;" edge="1" parent="1">
          <mxGeometry width="50" height="50" relative="1" as="geometry">
            <mxPoint x="200" y="340" as="sourcePoint" />
            <mxPoint x="570" y="340" as="targetPoint" />
          </mxGeometry>
        </mxCell>
        <mxCell id="Ihsage5sZQfSYGgomGOP-15" value="ECommeceSell { status: succeeded/failed, sell }" style="endArrow=classic;html=1;rounded=0;startArrow=none;startFill=0;endFill=1;fontStyle=0;fontFamily=Courier New;" edge="1" parent="1">
          <mxGeometry width="50" height="50" relative="1" as="geometry">
            <mxPoint x="200" y="380" as="sourcePoint" />
            <mxPoint x="570" y="380" as="targetPoint" />
          </mxGeometry>
        </mxCell>
        <mxCell id="vQcWiFRhHmNLqFjdASyz-1" value="ECommeceLastLineRead { last_line_read }" style="endArrow=none;html=1;rounded=0;startArrow=classic;startFill=1;endFill=0;fontStyle=0;fontFamily=Courier New;" edge="1" parent="1">
          <mxGeometry width="50" height="50" relative="1" as="geometry">
            <mxPoint x="205" y="450" as="sourcePoint" />
            <mxPoint x="565" y="450" as="targetPoint" />
          </mxGeometry>
        </mxCell>
        <mxCell id="vQcWiFRhHmNLqFjdASyz-2" value="&lt;font face=&quot;Courier New&quot;&gt;status == succeeded&lt;/font&gt;" style="shape=umlFrame;whiteSpace=wrap;html=1;pointerEvents=0;width=160;height=30;" vertex="1" parent="1">
          <mxGeometry x="200" y="400" width="370" height="80" as="geometry" />
        </mxCell>
      </root>
    </mxGraphModel>
  </diagram>
  <diagram id="MAWOAvCDxmxuhn-xj18P" name="find new coordinator 1">
    <mxGraphModel grid="1" page="1" gridSize="10" guides="1" tooltips="1" connect="1" arrows="1" fold="1" pageScale="1" pageWidth="827" pageHeight="1169" math="0" shadow="0">
      <root>
        <mxCell id="0" />
        <mxCell id="1" parent="0" />
        <mxCell id="uVplv5zzIgnOZu4j0S00-6" value="&lt;font face=&quot;Courier New&quot;&gt;ECommeceSell { status: succeeded/failed, sell }&lt;/font&gt;" style="rounded=0;orthogonalLoop=1;jettySize=auto;html=1;endArrow=cross;endFill=0;" edge="1" parent="1" source="uVplv5zzIgnOZu4j0S00-4" target="z7NZKCOWEFGwQi_8pxkT-5">
          <mxGeometry x="0.5651" y="3" relative="1" as="geometry">
            <mxPoint as="offset" />
          </mxGeometry>
        </mxCell>
        <mxCell id="z7NZKCOWEFGwQi_8pxkT-3" value="Common Store&lt;br&gt;127.0.0.2" style="html=1;verticalLabelPosition=bottom;align=center;labelBackgroundColor=#ffffff;verticalAlign=top;strokeWidth=2;shadow=1;dashed=0;shape=mxgraph.ios7.icons.home;fillColor=#FFD966;strokeColor=#36393d;fontStyle=0;fontFamily=Courier New;" vertex="1" parent="1">
          <mxGeometry x="223" y="305" width="50" height="50" as="geometry" />
        </mxCell>
        <mxCell id="z7NZKCOWEFGwQi_8pxkT-5" value="Coordinator Store&lt;br&gt;127.0.0.0" style="html=1;verticalLabelPosition=bottom;align=center;labelBackgroundColor=#ffffff;verticalAlign=top;strokeWidth=2;strokeColor=#36393d;shadow=1;dashed=0;shape=mxgraph.ios7.icons.home;fillColor=#CC99FF;fontStyle=0;fontFamily=Courier New;" vertex="1" parent="1">
          <mxGeometry x="553" y="535" width="50" height="50" as="geometry" />
        </mxCell>
        <mxCell id="uVplv5zzIgnOZu4j0S00-3" value="Common Store&lt;br&gt;127.0.0.1" style="html=1;verticalLabelPosition=bottom;align=center;labelBackgroundColor=#ffffff;verticalAlign=top;strokeWidth=2;shadow=1;dashed=0;shape=mxgraph.ios7.icons.home;fillColor=#FFD966;strokeColor=#36393d;fontStyle=0;fontFamily=Courier New;" vertex="1" parent="1">
          <mxGeometry x="223" y="535" width="50" height="50" as="geometry" />
        </mxCell>
        <mxCell id="uVplv5zzIgnOZu4j0S00-4" value="Common Store&lt;br&gt;127.0.0.3" style="html=1;verticalLabelPosition=bottom;align=center;labelBackgroundColor=#ffffff;verticalAlign=top;strokeWidth=2;shadow=1;dashed=0;shape=mxgraph.ios7.icons.home;fillColor=#FFD966;strokeColor=#36393d;fontStyle=0;fontFamily=Courier New;" vertex="1" parent="1">
          <mxGeometry x="393" y="145" width="50" height="50" as="geometry" />
        </mxCell>
        <mxCell id="uVplv5zzIgnOZu4j0S00-5" value="Common Store&lt;br&gt;127.0.0.4" style="html=1;verticalLabelPosition=bottom;align=center;labelBackgroundColor=#ffffff;verticalAlign=top;strokeWidth=2;shadow=1;dashed=0;shape=mxgraph.ios7.icons.home;fillColor=#FFD966;strokeColor=#36393d;fontStyle=0;fontFamily=Courier New;" vertex="1" parent="1">
          <mxGeometry x="553" y="305" width="50" height="50" as="geometry" />
        </mxCell>
      </root>
    </mxGraphModel>
  </diagram>
  <diagram name="find new coordinator 2" id="Rub8cQ6M0FOH8_zu83aH">
    <mxGraphModel grid="1" page="1" gridSize="10" guides="1" tooltips="1" connect="1" arrows="1" fold="1" pageScale="1" pageWidth="827" pageHeight="1169" math="0" shadow="0">
      <root>
        <mxCell id="fLJmiXAO4GfEaxgc_6PS-0" />
        <mxCell id="fLJmiXAO4GfEaxgc_6PS-1" parent="fLJmiXAO4GfEaxgc_6PS-0" />
        <mxCell id="HuhkySOTwWcZh2F_xHwN-1" value="&lt;div style=&quot;orphans: 2; widows: 2;&quot;&gt;&lt;font face=&quot;Courier New&quot;&gt;Emergency&lt;/font&gt;&lt;/div&gt;" style="edgeStyle=orthogonalEdgeStyle;rounded=0;orthogonalLoop=1;jettySize=auto;html=1;" edge="1" parent="fLJmiXAO4GfEaxgc_6PS-1" source="fLJmiXAO4GfEaxgc_6PS-2" target="fLJmiXAO4GfEaxgc_6PS-4">
          <mxGeometry relative="1" as="geometry" />
        </mxCell>
        <mxCell id="fLJmiXAO4GfEaxgc_6PS-2" value="Common Store&lt;br&gt;127.0.0.2" style="html=1;verticalLabelPosition=bottom;align=center;labelBackgroundColor=#ffffff;verticalAlign=top;strokeWidth=2;shadow=1;dashed=0;shape=mxgraph.ios7.icons.home;fillColor=#FFD966;strokeColor=#36393d;fontStyle=0;fontFamily=Courier New;" vertex="1" parent="fLJmiXAO4GfEaxgc_6PS-1">
          <mxGeometry x="223" y="305" width="50" height="50" as="geometry" />
        </mxCell>
        <mxCell id="fLJmiXAO4GfEaxgc_6PS-3" value="Coordinator Store&lt;br&gt;127.0.0.0" style="html=1;verticalLabelPosition=bottom;align=center;labelBackgroundColor=#ffffff;verticalAlign=top;strokeWidth=2;strokeColor=#36393d;shadow=1;dashed=0;shape=mxgraph.ios7.icons.home;fillColor=#FF3333;fontStyle=0;fontFamily=Courier New;" vertex="1" parent="fLJmiXAO4GfEaxgc_6PS-1">
          <mxGeometry x="553" y="535" width="50" height="50" as="geometry" />
        </mxCell>
        <mxCell id="HuhkySOTwWcZh2F_xHwN-2" value="&lt;div style=&quot;orphans: 2; widows: 2;&quot;&gt;&lt;font face=&quot;Courier New&quot;&gt;Emergency&lt;/font&gt;&lt;/div&gt;" style="edgeStyle=orthogonalEdgeStyle;rounded=0;orthogonalLoop=1;jettySize=auto;html=1;endArrow=cross;endFill=0;" edge="1" parent="fLJmiXAO4GfEaxgc_6PS-1" source="fLJmiXAO4GfEaxgc_6PS-4" target="fLJmiXAO4GfEaxgc_6PS-3">
          <mxGeometry relative="1" as="geometry" />
        </mxCell>
        <mxCell id="fLJmiXAO4GfEaxgc_6PS-4" value="Common Store&lt;br&gt;127.0.0.1" style="html=1;verticalLabelPosition=bottom;align=center;labelBackgroundColor=#ffffff;verticalAlign=top;strokeWidth=2;shadow=1;dashed=0;shape=mxgraph.ios7.icons.home;fillColor=#FFD966;strokeColor=#36393d;fontStyle=0;fontFamily=Courier New;" vertex="1" parent="fLJmiXAO4GfEaxgc_6PS-1">
          <mxGeometry x="223" y="535" width="50" height="50" as="geometry" />
        </mxCell>
        <mxCell id="HuhkySOTwWcZh2F_xHwN-0" value="&lt;font face=&quot;Courier New&quot;&gt;Emergency&lt;/font&gt;" style="rounded=0;orthogonalLoop=1;jettySize=auto;html=1;" edge="1" parent="fLJmiXAO4GfEaxgc_6PS-1" source="fLJmiXAO4GfEaxgc_6PS-5" target="fLJmiXAO4GfEaxgc_6PS-2">
          <mxGeometry x="0.2813" y="6" relative="1" as="geometry">
            <mxPoint as="offset" />
          </mxGeometry>
        </mxCell>
        <mxCell id="fLJmiXAO4GfEaxgc_6PS-5" value="Common Store&lt;br&gt;127.0.0.3" style="html=1;verticalLabelPosition=bottom;align=center;labelBackgroundColor=#ffffff;verticalAlign=top;strokeWidth=2;shadow=1;dashed=0;shape=mxgraph.ios7.icons.home;fillColor=#FFD966;strokeColor=#36393d;fontStyle=0;fontFamily=Courier New;" vertex="1" parent="fLJmiXAO4GfEaxgc_6PS-1">
          <mxGeometry x="393" y="145" width="50" height="50" as="geometry" />
        </mxCell>
        <mxCell id="fLJmiXAO4GfEaxgc_6PS-6" value="Common Store&lt;br&gt;127.0.0.4" style="html=1;verticalLabelPosition=bottom;align=center;labelBackgroundColor=#ffffff;verticalAlign=top;strokeWidth=2;shadow=1;dashed=0;shape=mxgraph.ios7.icons.home;fillColor=#FFD966;strokeColor=#36393d;fontStyle=0;fontFamily=Courier New;" vertex="1" parent="fLJmiXAO4GfEaxgc_6PS-1">
          <mxGeometry x="553" y="305" width="50" height="50" as="geometry" />
        </mxCell>
        <mxCell id="ftzu-QnmfVprHml0dWLJ-0" value="&lt;font face=&quot;Courier New&quot;&gt;if ( Connected || Failed )&lt;/font&gt;" style="shape=umlFrame;whiteSpace=wrap;html=1;pointerEvents=0;width=140;height=40;" vertex="1" parent="fLJmiXAO4GfEaxgc_6PS-1">
          <mxGeometry x="70" y="290" width="243" height="180" as="geometry" />
        </mxCell>
      </root>
    </mxGraphModel>
  </diagram>
  <diagram name="find new coordinator 3" id="UsU6mb4EtVh2SDClvtkU">
    <mxGraphModel grid="1" page="1" gridSize="10" guides="1" tooltips="1" connect="1" arrows="1" fold="1" pageScale="1" pageWidth="827" pageHeight="1169" math="0" shadow="0">
      <root>
        <mxCell id="o3QV1BJkXbLyO5dHaFCY-0" />
        <mxCell id="o3QV1BJkXbLyO5dHaFCY-1" parent="o3QV1BJkXbLyO5dHaFCY-0" />
        <mxCell id="b5CCsNpHwLsaqaK9oLkz-1" value="&lt;meta charset=&quot;utf-8&quot;&gt;&lt;span style=&quot;color: rgb(0, 0, 0); font-family: &amp;quot;Courier New&amp;quot;; font-size: 11px; font-style: normal; font-variant-ligatures: normal; font-variant-caps: normal; font-weight: 400; letter-spacing: normal; orphans: 2; text-align: center; text-indent: 0px; text-transform: none; widows: 2; word-spacing: 0px; -webkit-text-stroke-width: 0px; background-color: rgb(255, 255, 255); text-decoration-thickness: initial; text-decoration-style: initial; text-decoration-color: initial; float: none; display: inline !important;&quot;&gt;NewCoordinator { 127.0.0.1 }&lt;/span&gt;" style="rounded=0;orthogonalLoop=1;jettySize=auto;html=1;" edge="1" parent="o3QV1BJkXbLyO5dHaFCY-1" source="o3QV1BJkXbLyO5dHaFCY-6" target="o3QV1BJkXbLyO5dHaFCY-8">
          <mxGeometry x="0.5493" y="4" relative="1" as="geometry">
            <mxPoint as="offset" />
          </mxGeometry>
        </mxCell>
        <mxCell id="b5CCsNpHwLsaqaK9oLkz-2" value="&lt;meta charset=&quot;utf-8&quot;&gt;&lt;span style=&quot;color: rgb(0, 0, 0); font-family: &amp;quot;Courier New&amp;quot;; font-size: 11px; font-style: normal; font-variant-ligatures: normal; font-variant-caps: normal; font-weight: 400; letter-spacing: normal; orphans: 2; text-align: center; text-indent: 0px; text-transform: none; widows: 2; word-spacing: 0px; -webkit-text-stroke-width: 0px; background-color: rgb(255, 255, 255); text-decoration-thickness: initial; text-decoration-style: initial; text-decoration-color: initial; float: none; display: inline !important;&quot;&gt;NewCoordinator { 127.0.0.1 }&lt;/span&gt;" style="rounded=0;orthogonalLoop=1;jettySize=auto;html=1;" edge="1" parent="o3QV1BJkXbLyO5dHaFCY-1" source="o3QV1BJkXbLyO5dHaFCY-6" target="o3QV1BJkXbLyO5dHaFCY-9">
          <mxGeometry x="0.3432" y="2" relative="1" as="geometry">
            <mxPoint as="offset" />
          </mxGeometry>
        </mxCell>
        <mxCell id="b5CCsNpHwLsaqaK9oLkz-0" value="&lt;font face=&quot;Courier New&quot;&gt;NewCoordinator { 127.0.0.1 }&lt;/font&gt;" style="edgeStyle=orthogonalEdgeStyle;rounded=0;orthogonalLoop=1;jettySize=auto;html=1;" edge="1" parent="o3QV1BJkXbLyO5dHaFCY-1" source="o3QV1BJkXbLyO5dHaFCY-6" target="o3QV1BJkXbLyO5dHaFCY-3">
          <mxGeometry relative="1" as="geometry" />
        </mxCell>
        <mxCell id="o3QV1BJkXbLyO5dHaFCY-3" value="Common Store&lt;br&gt;127.0.0.2" style="html=1;verticalLabelPosition=bottom;align=center;labelBackgroundColor=#ffffff;verticalAlign=top;strokeWidth=2;shadow=1;dashed=0;shape=mxgraph.ios7.icons.home;fillColor=#FFD966;strokeColor=#36393d;fontStyle=0;fontFamily=Courier New;" vertex="1" parent="o3QV1BJkXbLyO5dHaFCY-1">
          <mxGeometry x="223" y="305" width="50" height="50" as="geometry" />
        </mxCell>
        <mxCell id="o3QV1BJkXbLyO5dHaFCY-4" value="Coordinator Store&lt;br&gt;127.0.0.0" style="html=1;verticalLabelPosition=bottom;align=center;labelBackgroundColor=#ffffff;verticalAlign=top;strokeWidth=2;strokeColor=#36393d;shadow=1;dashed=0;shape=mxgraph.ios7.icons.home;fillColor=#FF3333;fontStyle=0;fontFamily=Courier New;" vertex="1" parent="o3QV1BJkXbLyO5dHaFCY-1">
          <mxGeometry x="553" y="535" width="50" height="50" as="geometry" />
        </mxCell>
        <mxCell id="o3QV1BJkXbLyO5dHaFCY-6" value="Coordinator Store&lt;br&gt;127.0.0.1" style="html=1;verticalLabelPosition=bottom;align=center;labelBackgroundColor=#ffffff;verticalAlign=top;strokeWidth=2;shadow=1;dashed=0;shape=mxgraph.ios7.icons.home;fillColor=#CC99FF;strokeColor=#36393d;fontStyle=0;fontFamily=Courier New;" vertex="1" parent="o3QV1BJkXbLyO5dHaFCY-1">
          <mxGeometry x="223" y="535" width="50" height="50" as="geometry" />
        </mxCell>
        <mxCell id="o3QV1BJkXbLyO5dHaFCY-8" value="Common Store&lt;br&gt;127.0.0.3" style="html=1;verticalLabelPosition=bottom;align=center;labelBackgroundColor=#ffffff;verticalAlign=top;strokeWidth=2;shadow=1;dashed=0;shape=mxgraph.ios7.icons.home;fillColor=#FFD966;strokeColor=#36393d;fontStyle=0;fontFamily=Courier New;" vertex="1" parent="o3QV1BJkXbLyO5dHaFCY-1">
          <mxGeometry x="393" y="145" width="50" height="50" as="geometry" />
        </mxCell>
        <mxCell id="o3QV1BJkXbLyO5dHaFCY-9" value="Common Store&lt;br&gt;127.0.0.4" style="html=1;verticalLabelPosition=bottom;align=center;labelBackgroundColor=#ffffff;verticalAlign=top;strokeWidth=2;shadow=1;dashed=0;shape=mxgraph.ios7.icons.home;fillColor=#FFD966;strokeColor=#36393d;fontStyle=0;fontFamily=Courier New;" vertex="1" parent="o3QV1BJkXbLyO5dHaFCY-1">
          <mxGeometry x="553" y="305" width="50" height="50" as="geometry" />
        </mxCell>
      </root>
    </mxGraphModel>
  </diagram>
  <diagram name="find new coordinator 4" id="wCCQO5jvregbB5LwVBxF">
    <mxGraphModel grid="1" page="1" gridSize="10" guides="1" tooltips="1" connect="1" arrows="1" fold="1" pageScale="1" pageWidth="827" pageHeight="1169" math="0" shadow="0">
      <root>
        <mxCell id="CAh7WS2ODOsUPKvlnaxl-0" />
        <mxCell id="CAh7WS2ODOsUPKvlnaxl-1" parent="CAh7WS2ODOsUPKvlnaxl-0" />
        <mxCell id="a3zwLy1zRm92uSKMwBqd-0" value="&lt;font face=&quot;Courier New&quot;&gt;SyncStock { stock }&lt;/font&gt;" style="edgeStyle=orthogonalEdgeStyle;rounded=0;orthogonalLoop=1;jettySize=auto;html=1;" edge="1" parent="CAh7WS2ODOsUPKvlnaxl-1" source="CAh7WS2ODOsUPKvlnaxl-5" target="CAh7WS2ODOsUPKvlnaxl-7">
          <mxGeometry x="0.0556" y="-18" relative="1" as="geometry">
            <mxPoint as="offset" />
          </mxGeometry>
        </mxCell>
        <mxCell id="CAh7WS2ODOsUPKvlnaxl-5" value="Common Store&lt;br&gt;127.0.0.2" style="html=1;verticalLabelPosition=bottom;align=center;labelBackgroundColor=#ffffff;verticalAlign=top;strokeWidth=2;shadow=1;dashed=0;shape=mxgraph.ios7.icons.home;fillColor=#FFD966;strokeColor=#36393d;fontStyle=0;fontFamily=Courier New;" vertex="1" parent="CAh7WS2ODOsUPKvlnaxl-1">
          <mxGeometry x="223" y="305" width="50" height="50" as="geometry" />
        </mxCell>
        <mxCell id="CAh7WS2ODOsUPKvlnaxl-6" value="Coordinator Store&lt;br&gt;127.0.0.0" style="html=1;verticalLabelPosition=bottom;align=center;labelBackgroundColor=#ffffff;verticalAlign=top;strokeWidth=2;strokeColor=#36393d;shadow=1;dashed=0;shape=mxgraph.ios7.icons.home;fillColor=#FF3333;fontStyle=0;fontFamily=Courier New;" vertex="1" parent="CAh7WS2ODOsUPKvlnaxl-1">
          <mxGeometry x="553" y="535" width="50" height="50" as="geometry" />
        </mxCell>
        <mxCell id="CAh7WS2ODOsUPKvlnaxl-7" value="Coordinator&amp;nbsp;Store&lt;br&gt;127.0.0.1" style="html=1;verticalLabelPosition=bottom;align=center;labelBackgroundColor=#ffffff;verticalAlign=top;strokeWidth=2;shadow=1;dashed=0;shape=mxgraph.ios7.icons.home;fillColor=#CC99FF;strokeColor=#36393d;fontStyle=0;fontFamily=Courier New;" vertex="1" parent="CAh7WS2ODOsUPKvlnaxl-1">
          <mxGeometry x="223" y="535" width="50" height="50" as="geometry" />
        </mxCell>
        <mxCell id="a3zwLy1zRm92uSKMwBqd-1" value="&lt;meta charset=&quot;utf-8&quot;&gt;&lt;span style=&quot;color: rgb(0, 0, 0); font-family: &amp;quot;Courier New&amp;quot;; font-size: 11px; font-style: normal; font-variant-ligatures: normal; font-variant-caps: normal; font-weight: 400; letter-spacing: normal; orphans: 2; text-align: center; text-indent: 0px; text-transform: none; widows: 2; word-spacing: 0px; -webkit-text-stroke-width: 0px; background-color: rgb(255, 255, 255); text-decoration-thickness: initial; text-decoration-style: initial; text-decoration-color: initial; float: none; display: inline !important;&quot;&gt;SyncStock { stock }&lt;/span&gt;" style="rounded=0;orthogonalLoop=1;jettySize=auto;html=1;" edge="1" parent="CAh7WS2ODOsUPKvlnaxl-1" source="CAh7WS2ODOsUPKvlnaxl-8" target="CAh7WS2ODOsUPKvlnaxl-7">
          <mxGeometry x="-0.2806" y="7" relative="1" as="geometry">
            <mxPoint as="offset" />
          </mxGeometry>
        </mxCell>
        <mxCell id="CAh7WS2ODOsUPKvlnaxl-8" value="Common Store&lt;br&gt;127.0.0.3" style="html=1;verticalLabelPosition=bottom;align=center;labelBackgroundColor=#ffffff;verticalAlign=top;strokeWidth=2;shadow=1;dashed=0;shape=mxgraph.ios7.icons.home;fillColor=#FFD966;strokeColor=#36393d;fontStyle=0;fontFamily=Courier New;" vertex="1" parent="CAh7WS2ODOsUPKvlnaxl-1">
          <mxGeometry x="393" y="145" width="50" height="50" as="geometry" />
        </mxCell>
        <mxCell id="a3zwLy1zRm92uSKMwBqd-2" value="&lt;meta charset=&quot;utf-8&quot;&gt;&lt;span style=&quot;color: rgb(0, 0, 0); font-family: &amp;quot;Courier New&amp;quot;; font-size: 11px; font-style: normal; font-variant-ligatures: normal; font-variant-caps: normal; font-weight: 400; letter-spacing: normal; orphans: 2; text-align: center; text-indent: 0px; text-transform: none; widows: 2; word-spacing: 0px; -webkit-text-stroke-width: 0px; background-color: rgb(255, 255, 255); text-decoration-thickness: initial; text-decoration-style: initial; text-decoration-color: initial; float: none; display: inline !important;&quot;&gt;SyncStock { stock }&lt;/span&gt;" style="rounded=0;orthogonalLoop=1;jettySize=auto;html=1;" edge="1" parent="CAh7WS2ODOsUPKvlnaxl-1" source="CAh7WS2ODOsUPKvlnaxl-9" target="CAh7WS2ODOsUPKvlnaxl-7">
          <mxGeometry relative="1" as="geometry" />
        </mxCell>
        <mxCell id="CAh7WS2ODOsUPKvlnaxl-9" value="Common Store&lt;br&gt;127.0.0.4" style="html=1;verticalLabelPosition=bottom;align=center;labelBackgroundColor=#ffffff;verticalAlign=top;strokeWidth=2;shadow=1;dashed=0;shape=mxgraph.ios7.icons.home;fillColor=#FFD966;strokeColor=#36393d;fontStyle=0;fontFamily=Courier New;" vertex="1" parent="CAh7WS2ODOsUPKvlnaxl-1">
          <mxGeometry x="553" y="305" width="50" height="50" as="geometry" />
        </mxCell>
      </root>
    </mxGraphModel>
  </diagram>
  <diagram name="find new coordinator 5" id="r2wwtneQIMYshlOw9XIJ">
    <mxGraphModel grid="1" page="1" gridSize="10" guides="1" tooltips="1" connect="1" arrows="1" fold="1" pageScale="1" pageWidth="827" pageHeight="1169" math="0" shadow="0">
      <root>
        <mxCell id="guQ4IdqMErl6x1NDJKcO-0" />
        <mxCell id="guQ4IdqMErl6x1NDJKcO-1" parent="guQ4IdqMErl6x1NDJKcO-0" />
        <mxCell id="guQ4IdqMErl6x1NDJKcO-3" value="Common Store&lt;br&gt;127.0.0.2" style="html=1;verticalLabelPosition=bottom;align=center;labelBackgroundColor=#ffffff;verticalAlign=top;strokeWidth=2;shadow=1;dashed=0;shape=mxgraph.ios7.icons.home;fillColor=#FFD966;strokeColor=#36393d;fontStyle=0;fontFamily=Courier New;" parent="guQ4IdqMErl6x1NDJKcO-1" vertex="1">
          <mxGeometry x="223" y="305" width="50" height="50" as="geometry" />
        </mxCell>
        <mxCell id="guQ4IdqMErl6x1NDJKcO-4" value="Coordinator Store&lt;br&gt;127.0.0.0" style="html=1;verticalLabelPosition=bottom;align=center;labelBackgroundColor=#ffffff;verticalAlign=top;strokeWidth=2;strokeColor=#36393d;shadow=1;dashed=0;shape=mxgraph.ios7.icons.home;fillColor=#FF3333;fontStyle=0;fontFamily=Courier New;" parent="guQ4IdqMErl6x1NDJKcO-1" vertex="1">
          <mxGeometry x="553" y="535" width="50" height="50" as="geometry" />
        </mxCell>
        <mxCell id="guQ4IdqMErl6x1NDJKcO-5" value="Common Store&lt;br&gt;127.0.0.1" style="html=1;verticalLabelPosition=bottom;align=center;labelBackgroundColor=#ffffff;verticalAlign=top;strokeWidth=2;shadow=1;dashed=0;shape=mxgraph.ios7.icons.home;fillColor=#CC99FF;strokeColor=#36393d;fontStyle=0;fontFamily=Courier New;" parent="guQ4IdqMErl6x1NDJKcO-1" vertex="1">
          <mxGeometry x="223" y="535" width="50" height="50" as="geometry" />
        </mxCell>
        <mxCell id="4AHBGJxaaZTz_2anpol9-0" value="&lt;span style=&quot;caret-color: rgb(0, 0, 0); color: rgb(0, 0, 0); font-family: &amp;quot;Courier New&amp;quot;; font-size: 11px; font-style: normal; font-variant-caps: normal; font-weight: 400; letter-spacing: normal; text-align: center; text-indent: 0px; text-transform: none; word-spacing: 0px; -webkit-text-stroke-width: 0px; background-color: rgb(255, 255, 255); text-decoration: none; float: none; display: inline !important;&quot;&gt;ECommeceSell { status: succeeded/failed, sell }&lt;/span&gt;" style="rounded=0;orthogonalLoop=1;jettySize=auto;html=1;" edge="1" parent="guQ4IdqMErl6x1NDJKcO-1" source="guQ4IdqMErl6x1NDJKcO-6" target="guQ4IdqMErl6x1NDJKcO-5">
          <mxGeometry x="0.6117" y="3" relative="1" as="geometry">
            <mxPoint as="offset" />
          </mxGeometry>
        </mxCell>
        <mxCell id="guQ4IdqMErl6x1NDJKcO-6" value="Common Store&lt;br&gt;127.0.0.3" style="html=1;verticalLabelPosition=bottom;align=center;labelBackgroundColor=#ffffff;verticalAlign=top;strokeWidth=2;shadow=1;dashed=0;shape=mxgraph.ios7.icons.home;fillColor=#FFD966;strokeColor=#36393d;fontStyle=0;fontFamily=Courier New;" parent="guQ4IdqMErl6x1NDJKcO-1" vertex="1">
          <mxGeometry x="393" y="145" width="50" height="50" as="geometry" />
        </mxCell>
        <mxCell id="guQ4IdqMErl6x1NDJKcO-7" value="Common Store&lt;br&gt;127.0.0.4" style="html=1;verticalLabelPosition=bottom;align=center;labelBackgroundColor=#ffffff;verticalAlign=top;strokeWidth=2;shadow=1;dashed=0;shape=mxgraph.ios7.icons.home;fillColor=#FFD966;strokeColor=#36393d;fontStyle=0;fontFamily=Courier New;" parent="guQ4IdqMErl6x1NDJKcO-1" vertex="1">
          <mxGeometry x="553" y="305" width="50" height="50" as="geometry" />
        </mxCell>
      </root>
    </mxGraphModel>
  </diagram>
  <diagram id="8jfpxXqQltjWob7ZHa6o" name="actores-ecommece sell">
    <mxGraphModel grid="1" page="1" gridSize="10" guides="1" tooltips="1" connect="1" arrows="1" fold="1" pageScale="1" pageWidth="827" pageHeight="1169" math="0" shadow="0">
      <root>
        <mxCell id="0" />
        <mxCell id="1" parent="0" />
        <mxCell id="Jo2niD2iqx263dG_yx4f-3" style="edgeStyle=orthogonalEdgeStyle;rounded=0;orthogonalLoop=1;jettySize=auto;html=1;endArrow=none;endFill=0;fontFamily=Courier New;" edge="1" parent="1" source="Jo2niD2iqx263dG_yx4f-2">
          <mxGeometry relative="1" as="geometry">
            <mxPoint x="255" y="350" as="targetPoint" />
          </mxGeometry>
        </mxCell>
        <mxCell id="M-EjwwyOLDVVRR0E9iuz-1" style="edgeStyle=orthogonalEdgeStyle;rounded=0;orthogonalLoop=1;jettySize=auto;html=1;endArrow=none;endFill=0;fontStyle=0;fontFamily=Courier New;" edge="1" parent="1" source="M-EjwwyOLDVVRR0E9iuz-2">
          <mxGeometry relative="1" as="geometry">
            <mxPoint x="75" y="350" as="targetPoint" />
          </mxGeometry>
        </mxCell>
        <mxCell id="M-EjwwyOLDVVRR0E9iuz-2" value="Coordinator Store" style="html=1;verticalLabelPosition=bottom;align=center;labelBackgroundColor=#ffffff;verticalAlign=top;strokeWidth=2;strokeColor=#36393d;shadow=1;dashed=0;shape=mxgraph.ios7.icons.home;fillColor=#CC99FF;fontStyle=0;fontFamily=Courier New;" vertex="1" parent="1">
          <mxGeometry x="50" y="40" width="50" height="50" as="geometry" />
        </mxCell>
        <mxCell id="Jo2niD2iqx263dG_yx4f-2" value="&lt;font style=&quot;background-color: rgb(255, 255, 255);&quot;&gt;Coordinator Actor&lt;/font&gt;" style="shape=umlActor;verticalLabelPosition=bottom;verticalAlign=top;html=1;fillColor=#CC99FF;fontFamily=Courier New;" vertex="1" parent="1">
          <mxGeometry x="240" y="35" width="30" height="60" as="geometry" />
        </mxCell>
        <mxCell id="Jo2niD2iqx263dG_yx4f-4" value="" style="html=1;points=[[0,0,0,0,5],[0,1,0,0,-5],[1,0,0,0,5],[1,1,0,0,-5]];perimeter=orthogonalPerimeter;outlineConnect=0;targetShapes=umlLifeline;portConstraint=eastwest;newEdgeStyle={&quot;curved&quot;:0,&quot;rounded&quot;:0};fontFamily=Courier New;" vertex="1" parent="1">
          <mxGeometry x="250" y="130" width="10" height="210" as="geometry" />
        </mxCell>
        <mxCell id="Jo2niD2iqx263dG_yx4f-6" value="send(ECommerceSell)" style="endArrow=classic;html=1;rounded=0;fontFamily=Courier New;" edge="1" parent="1">
          <mxGeometry width="50" height="50" relative="1" as="geometry">
            <mxPoint x="90" y="190" as="sourcePoint" />
            <mxPoint x="240" y="190" as="targetPoint" />
          </mxGeometry>
        </mxCell>
        <mxCell id="Jo2niD2iqx263dG_yx4f-7" style="edgeStyle=orthogonalEdgeStyle;rounded=0;orthogonalLoop=1;jettySize=auto;html=1;endArrow=none;endFill=0;fontFamily=Courier New;" edge="1" parent="1" source="Jo2niD2iqx263dG_yx4f-8">
          <mxGeometry relative="1" as="geometry">
            <mxPoint x="535" y="350" as="targetPoint" />
          </mxGeometry>
        </mxCell>
        <mxCell id="Jo2niD2iqx263dG_yx4f-8" value="&lt;font style=&quot;background-color: rgb(255, 255, 255);&quot;&gt;Store Actor&lt;/font&gt;" style="shape=umlActor;verticalLabelPosition=bottom;verticalAlign=top;html=1;fillColor=#FFD966;fontFamily=Courier New;" vertex="1" parent="1">
          <mxGeometry x="520" y="35" width="30" height="60" as="geometry" />
        </mxCell>
        <mxCell id="Jo2niD2iqx263dG_yx4f-9" value="" style="html=1;points=[[0,0,0,0,5],[0,1,0,0,-5],[1,0,0,0,5],[1,1,0,0,-5]];perimeter=orthogonalPerimeter;outlineConnect=0;targetShapes=umlLifeline;portConstraint=eastwest;newEdgeStyle={&quot;curved&quot;:0,&quot;rounded&quot;:0};fontFamily=Courier New;" vertex="1" parent="1">
          <mxGeometry x="530" y="160" width="10" height="180" as="geometry" />
        </mxCell>
        <mxCell id="2ePKlSs4AyddduN2yb1e-1" value="start()" style="endArrow=classic;html=1;rounded=0;fontFamily=Courier New;" edge="1" parent="1">
          <mxGeometry x="-0.5419" width="50" height="50" relative="1" as="geometry">
            <mxPoint x="89" y="160" as="sourcePoint" />
            <mxPoint x="520" y="160" as="targetPoint" />
            <mxPoint as="offset" />
          </mxGeometry>
        </mxCell>
        <mxCell id="2ePKlSs4AyddduN2yb1e-2" value="send(ECommerceSell)" style="endArrow=classic;html=1;rounded=0;fontFamily=Courier New;" edge="1" parent="1">
          <mxGeometry width="50" height="50" relative="1" as="geometry">
            <mxPoint x="280" y="200" as="sourcePoint" />
            <mxPoint x="520" y="200" as="targetPoint" />
          </mxGeometry>
        </mxCell>
        <mxCell id="2ePKlSs4AyddduN2yb1e-3" value="" style="html=1;points=[[0,0,0,0,5],[0,1,0,0,-5],[1,0,0,0,5],[1,1,0,0,-5]];perimeter=orthogonalPerimeter;outlineConnect=0;targetShapes=umlLifeline;portConstraint=eastwest;newEdgeStyle={&quot;curved&quot;:0,&quot;rounded&quot;:0};fontFamily=Courier New;" vertex="1" parent="1">
          <mxGeometry x="540" y="200" width="10" height="120" as="geometry" />
        </mxCell>
        <mxCell id="x4nKCGgRT_wex-XBx_d2-1" style="edgeStyle=orthogonalEdgeStyle;rounded=0;orthogonalLoop=1;jettySize=auto;html=1;endArrow=none;endFill=0;fontStyle=0;fontFamily=Courier New;" edge="1" parent="1">
          <mxGeometry relative="1" as="geometry">
            <mxPoint x="815" y="350" as="targetPoint" />
            <mxPoint x="815" y="90" as="sourcePoint" />
          </mxGeometry>
        </mxCell>
        <mxCell id="x4nKCGgRT_wex-XBx_d2-2" value="Common Store" style="html=1;verticalLabelPosition=bottom;align=center;labelBackgroundColor=#ffffff;verticalAlign=top;strokeWidth=2;shadow=1;dashed=0;shape=mxgraph.ios7.icons.home;fillColor=#FFD966;strokeColor=#36393d;fontStyle=0;fontFamily=Courier New;" vertex="1" parent="1">
          <mxGeometry x="790" y="40" width="50" height="50" as="geometry" />
        </mxCell>
        <mxCell id="x4nKCGgRT_wex-XBx_d2-3" value="start()" style="endArrow=classic;html=1;rounded=0;fontFamily=Courier New;" edge="1" parent="1">
          <mxGeometry width="50" height="50" relative="1" as="geometry">
            <mxPoint x="90" y="130" as="sourcePoint" />
            <mxPoint x="240" y="130" as="targetPoint" />
          </mxGeometry>
        </mxCell>
        <mxCell id="x4nKCGgRT_wex-XBx_d2-4" value="" style="html=1;points=[[0,0,0,0,5],[0,1,0,0,-5],[1,0,0,0,5],[1,1,0,0,-5]];perimeter=orthogonalPerimeter;outlineConnect=0;targetShapes=umlLifeline;portConstraint=eastwest;newEdgeStyle={&quot;curved&quot;:0,&quot;rounded&quot;:0};fontFamily=Courier New;" vertex="1" parent="1">
          <mxGeometry x="260" y="190" width="10" height="140" as="geometry" />
        </mxCell>
        <mxCell id="x4nKCGgRT_wex-XBx_d2-5" value="write(ECommerceSell)" style="endArrow=classic;html=1;rounded=0;fontFamily=Courier New;" edge="1" parent="1">
          <mxGeometry width="50" height="50" relative="1" as="geometry">
            <mxPoint x="560" y="210" as="sourcePoint" />
            <mxPoint x="800" y="210" as="targetPoint" />
          </mxGeometry>
        </mxCell>
        <mxCell id="x4nKCGgRT_wex-XBx_d2-6" value="" style="html=1;points=[[0,0,0,0,5],[0,1,0,0,-5],[1,0,0,0,5],[1,1,0,0,-5]];perimeter=orthogonalPerimeter;outlineConnect=0;targetShapes=umlLifeline;portConstraint=eastwest;newEdgeStyle={&quot;curved&quot;:0,&quot;rounded&quot;:0};fontFamily=Courier New;" vertex="1" parent="1">
          <mxGeometry x="810" y="210" width="10" height="100" as="geometry" />
        </mxCell>
        <mxCell id="x4nKCGgRT_wex-XBx_d2-7" value="make_sell()" style="edgeStyle=orthogonalEdgeStyle;rounded=0;orthogonalLoop=1;jettySize=auto;html=1;curved=0;entryX=1;entryY=1;entryDx=0;entryDy=-5;entryPerimeter=0;fontFamily=Courier New;" edge="1" parent="1">
          <mxGeometry x="-0.04" y="10" relative="1" as="geometry">
            <mxPoint x="820" y="240" as="sourcePoint" />
            <mxPoint x="820" y="285" as="targetPoint" />
            <Array as="points">
              <mxPoint x="860" y="240" />
            </Array>
            <mxPoint as="offset" />
          </mxGeometry>
        </mxCell>
        <mxCell id="x4nKCGgRT_wex-XBx_d2-8" value="write(ECommerceSell { status })" style="endArrow=none;html=1;rounded=0;startArrow=classic;startFill=1;endFill=0;dashed=1;fontFamily=Courier New;" edge="1" parent="1">
          <mxGeometry width="50" height="50" relative="1" as="geometry">
            <mxPoint x="560" y="310" as="sourcePoint" />
            <mxPoint x="800" y="310" as="targetPoint" />
          </mxGeometry>
        </mxCell>
        <mxCell id="x4nKCGgRT_wex-XBx_d2-9" value="send(ECommerceSell { status })" style="endArrow=none;html=1;rounded=0;endFill=0;startArrow=classic;startFill=1;dashed=1;fontFamily=Courier New;" edge="1" parent="1">
          <mxGeometry width="50" height="50" relative="1" as="geometry">
            <mxPoint x="280" y="320" as="sourcePoint" />
            <mxPoint x="520" y="320" as="targetPoint" />
          </mxGeometry>
        </mxCell>
      </root>
    </mxGraphModel>
  </diagram>
  <diagram name="actores-sync stock" id="KIxa4E15EmB86UCUjTKo">
    <mxGraphModel grid="1" page="1" gridSize="10" guides="1" tooltips="1" connect="1" arrows="1" fold="1" pageScale="1" pageWidth="827" pageHeight="1169" math="0" shadow="0">
      <root>
        <mxCell id="gPz3OVuOUoBrGy1HVDRb-0" />
        <mxCell id="gPz3OVuOUoBrGy1HVDRb-1" parent="gPz3OVuOUoBrGy1HVDRb-0" />
        <mxCell id="gPz3OVuOUoBrGy1HVDRb-3" style="edgeStyle=orthogonalEdgeStyle;rounded=0;orthogonalLoop=1;jettySize=auto;html=1;endArrow=none;endFill=0;fontStyle=0;fontFamily=Courier New;" edge="1" parent="gPz3OVuOUoBrGy1HVDRb-1" source="gPz3OVuOUoBrGy1HVDRb-4">
          <mxGeometry relative="1" as="geometry">
            <mxPoint x="375" y="260" as="targetPoint" />
          </mxGeometry>
        </mxCell>
        <mxCell id="gPz3OVuOUoBrGy1HVDRb-4" value="Coordinator Store" style="html=1;verticalLabelPosition=bottom;align=center;labelBackgroundColor=#ffffff;verticalAlign=top;strokeWidth=2;strokeColor=#36393d;shadow=1;dashed=0;shape=mxgraph.ios7.icons.home;fillColor=#CC99FF;fontStyle=0;fontFamily=Courier New;" vertex="1" parent="gPz3OVuOUoBrGy1HVDRb-1">
          <mxGeometry x="350" y="40" width="50" height="50" as="geometry" />
        </mxCell>
        <mxCell id="gPz3OVuOUoBrGy1HVDRb-7" value="send(SyncStock { stock })" style="endArrow=classic;html=1;rounded=0;fontFamily=Courier New;" edge="1" parent="gPz3OVuOUoBrGy1HVDRb-1">
          <mxGeometry width="50" height="50" relative="1" as="geometry">
            <mxPoint x="390" y="150" as="sourcePoint" />
            <mxPoint x="620" y="150" as="targetPoint" />
          </mxGeometry>
        </mxCell>
        <mxCell id="gPz3OVuOUoBrGy1HVDRb-9" value="&lt;font style=&quot;background-color: rgb(255, 255, 255);&quot;&gt;Store Actor&lt;/font&gt;" style="shape=umlActor;verticalLabelPosition=bottom;verticalAlign=top;html=1;fillColor=#FFD966;fontFamily=Courier New;" vertex="1" parent="gPz3OVuOUoBrGy1HVDRb-1">
          <mxGeometry x="620" y="40" width="30" height="60" as="geometry" />
        </mxCell>
        <mxCell id="gPz3OVuOUoBrGy1HVDRb-14" style="edgeStyle=orthogonalEdgeStyle;rounded=0;orthogonalLoop=1;jettySize=auto;html=1;endArrow=none;endFill=0;fontStyle=0;fontFamily=Courier New;" edge="1" parent="gPz3OVuOUoBrGy1HVDRb-1">
          <mxGeometry relative="1" as="geometry">
            <mxPoint x="105" y="260" as="targetPoint" />
            <mxPoint x="105" y="90" as="sourcePoint" />
          </mxGeometry>
        </mxCell>
        <mxCell id="gPz3OVuOUoBrGy1HVDRb-15" value="Common Store" style="html=1;verticalLabelPosition=bottom;align=center;labelBackgroundColor=#ffffff;verticalAlign=top;strokeWidth=2;shadow=1;dashed=0;shape=mxgraph.ios7.icons.home;fillColor=#FFD966;strokeColor=#36393d;fontStyle=0;fontFamily=Courier New;" vertex="1" parent="gPz3OVuOUoBrGy1HVDRb-1">
          <mxGeometry x="80" y="40" width="50" height="50" as="geometry" />
        </mxCell>
        <mxCell id="gPz3OVuOUoBrGy1HVDRb-16" value="write(SyncStock { stock })" style="endArrow=classic;html=1;rounded=0;fontFamily=Courier New;" edge="1" parent="gPz3OVuOUoBrGy1HVDRb-1">
          <mxGeometry width="50" height="50" relative="1" as="geometry">
            <mxPoint x="120" y="130" as="sourcePoint" />
            <mxPoint x="360" y="130" as="targetPoint" />
          </mxGeometry>
        </mxCell>
        <mxCell id="OGGax5kcAJ7k-YvfVr2w-3" value="" style="edgeStyle=orthogonalEdgeStyle;rounded=0;orthogonalLoop=1;jettySize=auto;html=1;endArrow=none;endFill=0;fontFamily=Courier New;" edge="1" parent="gPz3OVuOUoBrGy1HVDRb-1" source="gPz3OVuOUoBrGy1HVDRb-9">
          <mxGeometry relative="1" as="geometry">
            <mxPoint x="635" y="260" as="targetPoint" />
            <mxPoint x="635" y="100" as="sourcePoint" />
          </mxGeometry>
        </mxCell>
        <mxCell id="n6vTElFHut4L4qc-_qWF-0" value="" style="html=1;points=[[0,0,0,0,5],[0,1,0,0,-5],[1,0,0,0,5],[1,1,0,0,-5]];perimeter=orthogonalPerimeter;outlineConnect=0;targetShapes=umlLifeline;portConstraint=eastwest;newEdgeStyle={&quot;curved&quot;:0,&quot;rounded&quot;:0};fontFamily=Courier New;" vertex="1" parent="gPz3OVuOUoBrGy1HVDRb-1">
          <mxGeometry x="630" y="150" width="10" height="100" as="geometry" />
        </mxCell>
        <mxCell id="n6vTElFHut4L4qc-_qWF-1" value="sync_stock()" style="edgeStyle=orthogonalEdgeStyle;rounded=0;orthogonalLoop=1;jettySize=auto;html=1;curved=0;entryX=1;entryY=1;entryDx=0;entryDy=-5;entryPerimeter=0;fontFamily=Courier New;" edge="1" parent="gPz3OVuOUoBrGy1HVDRb-1">
          <mxGeometry x="-0.04" y="10" relative="1" as="geometry">
            <mxPoint x="640" y="180" as="sourcePoint" />
            <mxPoint x="640" y="225" as="targetPoint" />
            <Array as="points">
              <mxPoint x="680" y="180" />
            </Array>
            <mxPoint as="offset" />
          </mxGeometry>
        </mxCell>
      </root>
    </mxGraphModel>
  </diagram>
  <diagram name="actores-update product" id="ClGWcrEnz-TXdgUz2d5j">
    <mxGraphModel grid="1" page="1" gridSize="10" guides="1" tooltips="1" connect="1" arrows="1" fold="1" pageScale="1" pageWidth="827" pageHeight="1169" math="0" shadow="0">
      <root>
        <mxCell id="0QZfY50Dy0E3LR2hf-NO-0" />
        <mxCell id="0QZfY50Dy0E3LR2hf-NO-1" parent="0QZfY50Dy0E3LR2hf-NO-0" />
        <mxCell id="0QZfY50Dy0E3LR2hf-NO-2" style="edgeStyle=orthogonalEdgeStyle;rounded=0;orthogonalLoop=1;jettySize=auto;html=1;endArrow=none;endFill=0;fontStyle=0;fontFamily=Courier New;" edge="1" parent="0QZfY50Dy0E3LR2hf-NO-1" source="0QZfY50Dy0E3LR2hf-NO-3">
          <mxGeometry relative="1" as="geometry">
            <mxPoint x="405" y="350" as="targetPoint" />
          </mxGeometry>
        </mxCell>
        <mxCell id="0QZfY50Dy0E3LR2hf-NO-3" value="Coordinator Store" style="html=1;verticalLabelPosition=bottom;align=center;labelBackgroundColor=#ffffff;verticalAlign=top;strokeWidth=2;strokeColor=#36393d;shadow=1;dashed=0;shape=mxgraph.ios7.icons.home;fillColor=#CC99FF;fontStyle=0;fontFamily=Courier New;" vertex="1" parent="0QZfY50Dy0E3LR2hf-NO-1">
          <mxGeometry x="380" y="40" width="50" height="50" as="geometry" />
        </mxCell>
        <mxCell id="0QZfY50Dy0E3LR2hf-NO-5" value="&lt;font style=&quot;background-color: rgb(255, 255, 255);&quot; face=&quot;Courier New&quot;&gt;Store Actor&lt;/font&gt;" style="shape=umlActor;verticalLabelPosition=bottom;verticalAlign=top;html=1;fillColor=#FFD966;" vertex="1" parent="0QZfY50Dy0E3LR2hf-NO-1">
          <mxGeometry x="720" y="40" width="30" height="60" as="geometry" />
        </mxCell>
        <mxCell id="0QZfY50Dy0E3LR2hf-NO-6" style="edgeStyle=orthogonalEdgeStyle;rounded=0;orthogonalLoop=1;jettySize=auto;html=1;endArrow=none;endFill=0;fontStyle=0;fontFamily=Courier New;" edge="1" parent="0QZfY50Dy0E3LR2hf-NO-1">
          <mxGeometry relative="1" as="geometry">
            <mxPoint x="55" y="350" as="targetPoint" />
            <mxPoint x="55" y="90" as="sourcePoint" />
          </mxGeometry>
        </mxCell>
        <mxCell id="0QZfY50Dy0E3LR2hf-NO-7" value="Common Store" style="html=1;verticalLabelPosition=bottom;align=center;labelBackgroundColor=#ffffff;verticalAlign=top;strokeWidth=2;shadow=1;dashed=0;shape=mxgraph.ios7.icons.home;fillColor=#FFD966;strokeColor=#36393d;fontStyle=0;fontFamily=Courier New;" vertex="1" parent="0QZfY50Dy0E3LR2hf-NO-1">
          <mxGeometry x="30" y="40" width="50" height="50" as="geometry" />
        </mxCell>
        <mxCell id="0QZfY50Dy0E3LR2hf-NO-9" value="" style="edgeStyle=orthogonalEdgeStyle;rounded=0;orthogonalLoop=1;jettySize=auto;html=1;endArrow=none;endFill=0;" edge="1" parent="0QZfY50Dy0E3LR2hf-NO-1" source="0QZfY50Dy0E3LR2hf-NO-5">
          <mxGeometry relative="1" as="geometry">
            <mxPoint x="735" y="350" as="targetPoint" />
            <mxPoint x="735" y="100" as="sourcePoint" />
          </mxGeometry>
        </mxCell>
        <mxCell id="0QZfY50Dy0E3LR2hf-NO-10" value="" style="html=1;points=[[0,0,0,0,5],[0,1,0,0,-5],[1,0,0,0,5],[1,1,0,0,-5]];perimeter=orthogonalPerimeter;outlineConnect=0;targetShapes=umlLifeline;portConstraint=eastwest;newEdgeStyle={&quot;curved&quot;:0,&quot;rounded&quot;:0};" vertex="1" parent="0QZfY50Dy0E3LR2hf-NO-1">
          <mxGeometry x="730" y="230" width="10" height="100" as="geometry" />
        </mxCell>
        <mxCell id="0QZfY50Dy0E3LR2hf-NO-12" value="write(UpdateProduct { product, amount&amp;nbsp;})" style="endArrow=classic;html=1;rounded=0;fontFamily=Courier New;" edge="1" parent="0QZfY50Dy0E3LR2hf-NO-1">
          <mxGeometry width="50" height="50" relative="1" as="geometry">
            <mxPoint x="70" y="220" as="sourcePoint" />
            <mxPoint x="390" y="220" as="targetPoint" />
            <mxPoint as="offset" />
          </mxGeometry>
        </mxCell>
        <mxCell id="0QZfY50Dy0E3LR2hf-NO-13" value="send(UpdateProduct { product, amount&amp;nbsp;})" style="endArrow=classic;html=1;rounded=0;fontFamily=Courier New;" edge="1" parent="0QZfY50Dy0E3LR2hf-NO-1">
          <mxGeometry width="50" height="50" relative="1" as="geometry">
            <mxPoint x="413" y="230" as="sourcePoint" />
            <mxPoint x="713" y="230" as="targetPoint" />
            <mxPoint as="offset" />
          </mxGeometry>
        </mxCell>
        <mxCell id="0QZfY50Dy0E3LR2hf-NO-15" value="update_stock()" style="edgeStyle=orthogonalEdgeStyle;rounded=0;orthogonalLoop=1;jettySize=auto;html=1;curved=0;entryX=1;entryY=1;entryDx=0;entryDy=-5;entryPerimeter=0;fontFamily=Courier New;" edge="1" parent="0QZfY50Dy0E3LR2hf-NO-1">
          <mxGeometry x="-0.04" y="10" relative="1" as="geometry">
            <mxPoint x="740" y="257.5" as="sourcePoint" />
            <mxPoint x="740" y="302.5" as="targetPoint" />
            <Array as="points">
              <mxPoint x="780" y="257.5" />
            </Array>
            <mxPoint as="offset" />
          </mxGeometry>
        </mxCell>
        <mxCell id="WMWn9f5J_gnxFdfD_7KJ-0" value="" style="html=1;points=[[0,0,0,0,5],[0,1,0,0,-5],[1,0,0,0,5],[1,1,0,0,-5]];perimeter=orthogonalPerimeter;outlineConnect=0;targetShapes=umlLifeline;portConstraint=eastwest;newEdgeStyle={&quot;curved&quot;:0,&quot;rounded&quot;:0};" vertex="1" parent="0QZfY50Dy0E3LR2hf-NO-1">
          <mxGeometry x="50" y="120" width="10" height="70" as="geometry" />
        </mxCell>
        <mxCell id="WMWn9f5J_gnxFdfD_7KJ-1" value="make_local_sell()" style="edgeStyle=orthogonalEdgeStyle;rounded=0;orthogonalLoop=1;jettySize=auto;html=1;curved=0;entryX=1;entryY=1;entryDx=0;entryDy=-5;entryPerimeter=0;fontFamily=Courier New;" edge="1" parent="0QZfY50Dy0E3LR2hf-NO-1">
          <mxGeometry x="-0.04" y="10" relative="1" as="geometry">
            <mxPoint x="60" y="132.5" as="sourcePoint" />
            <mxPoint x="60" y="177.5" as="targetPoint" />
            <Array as="points">
              <mxPoint x="100" y="132.5" />
            </Array>
            <mxPoint as="offset" />
          </mxGeometry>
        </mxCell>
      </root>
    </mxGraphModel>
  </diagram>
</mxfile>
